<?xml version="1.0" standalone="no"?>
<!DOCTYPE svg PUBLIC "-//W3C//DTD SVG 20010904//EN"
 "http://www.w3.org/TR/2001/REC-SVG-20010904/DTD/svg10.dtd">
<svg version="1.0" xmlns="http://www.w3.org/2000/svg"
 width="180.000000pt" height="180.000000pt" viewBox="0 0 180.000000 180.000000"
 preserveAspectRatio="xMidYMid meet">
<metadata>
Created by potrace 1.11, written by Peter Selinger 2001-2013
</metadata>
<g transform="translate(0.000000,180.000000) scale(0.100000,-0.100000)"
fill="#000000" stroke="none">
<path d="M854 1578 c-27 -59 -34 -70 -59 -101 -22 -26 -96 -206 -94 -225 1 -4
0 -9 -1 -12 -21 -49 -8 -272 19 -303 6 -8 8 -17 5 -20 -7 -7 -16 1 -83 66 -27
26 -52 47 -56 47 -4 0 -26 15 -48 33 -47 37 -65 48 -127 77 -25 12 -57 28 -73
36 -15 9 -27 12 -27 8 0 -4 -9 1 -21 12 -12 10 -22 18 -23 16 -1 -4 -50 14
-101 37 -22 11 -41 15 -43 10 -8 -21 86 -237 113 -259 8 -7 15 -17 15 -22 0
-6 17 -27 38 -47 21 -21 41 -45 45 -54 3 -9 13 -17 22 -17 8 0 14 -4 12 -9 -3
-11 74 -81 89 -81 7 0 14 -6 17 -14 4 -10 -16 -13 -101 -15 -59 0 -120 -3
-137 -5 -16 -2 -57 -7 -89 -11 -100 -11 -138 -20 -137 -30 1 -14 146 -87 217
-109 32 -10 68 -22 79 -27 20 -7 70 -21 90 -24 6 0 23 -5 38 -9 15 -5 47 -10
70 -11 23 -2 49 -4 57 -4 18 -2 -28 -40 -48 -41 -14 0 -202 -185 -202 -199 0
-9 6 -9 120 3 116 12 144 17 195 31 28 8 52 14 55 13 3 -1 31 13 62 30 64 36
97 36 115 1 14 -27 8 -84 -13 -116 -8 -12 -14 -29 -14 -37 0 -18 51 -36 101
-36 l39 0 2 48 c0 26 1 72 2 102 1 53 2 55 26 52 14 -2 48 -14 75 -27 95 -45
221 -75 365 -87 19 -1 19 6 -1 33 -30 42 -165 179 -177 179 -5 0 -15 7 -22 15
-11 13 -5 15 42 15 83 0 259 36 293 60 6 4 18 6 28 5 9 -2 17 0 17 3 0 4 27
16 60 26 33 11 60 23 60 27 0 4 14 10 30 14 49 11 35 22 -47 34 -43 7 -89 14
-103 17 -53 8 -189 17 -267 17 -46 0 -83 4 -83 7 0 4 14 13 30 20 17 7 30 16
30 20 0 4 14 13 30 20 17 7 30 16 30 21 0 5 14 15 30 24 17 9 30 22 30 30 0 8
5 15 11 15 11 0 79 68 79 80 0 4 7 10 15 14 8 3 15 12 15 19 0 8 7 20 15 27 8
6 14 15 12 18 -1 4 7 20 18 35 27 41 86 191 76 195 -10 3 -150 -51 -203 -79
-10 -5 -24 -9 -32 -9 -7 0 -19 -7 -26 -15 -7 -8 -16 -13 -20 -10 -4 3 -13 -2
-20 -10 -7 -8 -18 -15 -25 -15 -7 0 -32 -15 -56 -34 -24 -18 -54 -36 -66 -40
-11 -4 -24 -14 -27 -22 -3 -8 -10 -13 -15 -10 -5 4 -18 -5 -29 -19 -11 -14
-24 -25 -30 -25 -5 0 -17 -12 -27 -26 -20 -31 -44 -19 -26 13 22 42 38 183 20
183 -9 0 -8 4 1 15 7 8 9 23 4 37 -4 13 -9 32 -10 43 -2 11 -5 35 -7 54 -3 18
-10 37 -16 41 -7 4 -11 11 -10 16 1 5 -1 17 -4 27 -4 9 -10 25 -14 35 -3 9 -7
19 -7 22 -1 3 -10 19 -22 35 -11 17 -42 67 -69 113 -26 45 -53 82 -60 82 -6 0
-25 -28 -41 -62z"/>
</g>
</svg>
